<svg width="20" height="20" viewBox="0 0 20 20" fill="none" xmlns="http://www.w3.org/2000/svg">
<path d="M0.0184099 2.09364C0.0196048 0.937354 0.957927 0.00183833 2.11421 0.00410603L17.8965 0.0350582C19.0528 0.0373259 19.9892 0.976519 19.988 2.1328L19.9717 17.9063C19.9705 19.0626 19.0322 19.9981 17.8759 19.9958L2.09358 19.9649C0.937297 19.9626 0.000914624 19.0234 0.00210954 17.8671L0.0184099 2.09364Z" fill="#2196F3"/>
<g clip-path="url(#clip0_169_3530)">
<path d="M10.4816 9.26729L9.57639 9.266L9.5751 10.1712L10.4803 10.1725L10.4816 9.26729Z" fill="white"/>
<path d="M14.4753 4.97415L13.9317 4.97338L13.933 4.06817L13.0272 4.06689L13.0259 4.97209L7.0472 4.96358L7.04849 4.05838L6.14262 4.05709L6.14133 4.9623L5.59782 4.96152C4.84858 4.96046 4.23816 5.5687 4.23709 6.3174L4.22574 14.2832C4.22467 15.0319 4.83336 15.6419 5.5826 15.6429L8.59459 15.6472L8.66253 15.6473L10.2424 15.6496C9.92961 15.3908 9.65729 15.085 9.43605 14.7432L8.66382 14.7421L8.59588 14.742L5.58389 14.7377C5.33414 14.7374 5.13125 14.534 5.1316 14.2845L5.14011 8.31014L14.9234 8.32405L14.9221 9.22926L14.9221 9.27452L14.9221 9.27676C15.2634 9.49882 15.5687 9.77183 15.8268 10.0851L15.8279 9.27581L15.828 9.23055L15.8321 6.33389C15.8332 5.5852 15.2245 4.97522 14.4753 4.97415ZM14.9247 7.41885L5.1414 7.40493L5.14295 6.31869C5.14331 6.06912 5.34678 5.86637 5.59653 5.86673L6.14005 5.8675L6.13876 6.77271L7.04462 6.77399L7.04591 5.86879L13.0246 5.87729L13.0233 6.7825L13.9292 6.78379L13.9305 5.87858L14.474 5.87936C14.7237 5.87971 14.9266 6.08304 14.9263 6.3326L14.9247 7.41885Z" fill="white"/>
<path d="M12.7689 9.54228C11.0831 9.53988 9.70964 10.9084 9.70724 12.593C9.70484 14.2776 11.0744 15.65 12.7602 15.6524C14.446 15.6548 15.8194 14.2863 15.8218 12.6017C15.8242 10.9171 14.4547 9.54467 12.7689 9.54228ZM12.7615 14.7472C11.5752 14.7455 10.6114 13.7797 10.6131 12.5943C10.6148 11.4088 11.5813 10.4458 12.7676 10.4475C13.9539 10.4492 14.9176 11.415 14.9159 12.6004C14.9143 13.7858 13.9478 14.7489 12.7615 14.7472Z" fill="white"/>
<path d="M13.1977 11.0808L12.2918 11.0795L12.289 13.0484L13.9649 13.0507L13.9662 12.1455L13.1962 12.1444L13.1977 11.0808Z" fill="white"/>
<path d="M8.67036 11.0747L7.76516 11.0734L7.76387 11.9786L8.66907 11.9799L8.67036 11.0747Z" fill="white"/>
<path d="M6.85478 11.0726L5.94958 11.0714L5.94829 11.9766L6.85349 11.9778L6.85478 11.0726Z" fill="white"/>
<path d="M6.85887 9.26115L5.95366 9.25987L5.95238 10.1651L6.85758 10.1664L6.85887 9.26115Z" fill="white"/>
<path d="M6.85478 12.8841L5.94958 12.8828L5.94829 13.7881L6.85349 13.7893L6.85478 12.8841Z" fill="white"/>
<path d="M8.67445 9.26524L7.76924 9.26395L7.76795 10.1692L8.67316 10.1704L8.67445 9.26524Z" fill="white"/>
<path d="M8.66627 12.8862L7.76107 12.8849L7.75978 13.7901L8.66498 13.7914L8.66627 12.8862Z" fill="white"/>
</g>
<defs>
<clipPath id="clip0_169_3530">
<path d="M4.20135 6.2891C4.20254 5.13282 5.14086 4.1973 6.29715 4.19957L13.7049 4.2141C14.8612 4.21636 15.7976 5.15556 15.7964 6.31184L15.7866 15.8044L4.19154 15.7817L4.20135 6.2891Z" fill="white"/>
</clipPath>
</defs>
</svg>
