<svg width="16" height="11" viewBox="0 0 16 11" fill="none" xmlns="http://www.w3.org/2000/svg">
<path d="M5.75718 9.49753C5.16568 9.49744 4.60804 9.38986 4.08429 9.17479C3.56053 8.95973 3.10294 8.66765 2.71152 8.29853C2.31979 7.92912 2.00989 7.49746 1.78184 7.00355C1.55379 6.50964 1.43987 5.98394 1.4401 5.42645C1.44004 5.09479 1.47995 4.77249 1.55983 4.45953C1.63971 4.14658 1.75557 3.85263 1.90739 3.57768C2.05922 3.30273 2.24095 3.04662 2.45257 2.80937C2.66419 2.57212 2.90204 2.35914 3.1661 2.17044L6.4279 5.24637L5.75657 5.87943L3.16632 3.43678C2.92656 3.7081 2.73877 4.01153 2.60294 4.34709C2.46711 4.68265 2.39923 5.04249 2.3993 5.42661C2.39945 6.30099 2.7273 7.04727 3.38286 7.66548C4.03841 8.28368 4.8298 8.59285 5.75703 8.59301C6.68425 8.59316 7.47554 8.28424 8.13089 7.66626C8.78624 7.04827 9.11384 6.30209 9.11369 5.42772C9.11355 4.62118 8.83958 3.92586 8.29178 3.34174C7.74398 2.75763 7.05857 2.41259 6.23556 2.30663L6.23571 3.16593L5.27651 3.16577L5.2762 1.35672L5.7558 1.35679C6.34731 1.35689 6.90494 1.46447 7.4287 1.67953C7.95246 1.8946 8.41005 2.18668 8.80146 2.55579C9.1932 2.92521 9.50309 3.35687 9.73114 3.85078C9.9592 4.34469 10.0731 4.87039 10.0729 5.42788C10.073 5.98567 9.95909 6.51148 9.7312 7.00531C9.50331 7.49915 9.19373 7.93056 8.80244 8.29954C8.41083 8.66882 7.95318 8.96091 7.42949 9.1758C6.9058 9.39069 6.34837 9.49793 5.75718 9.49753ZM5.75695 8.14074C5.62107 8.14072 5.50707 8.09729 5.41498 8.01044C5.32288 7.92359 5.27698 7.81624 5.27728 7.6884C5.27725 7.56026 5.32328 7.45278 5.41535 7.36596C5.50741 7.27914 5.62123 7.23589 5.7568 7.23622C5.89269 7.23624 6.00668 7.27968 6.09878 7.36653C6.19087 7.45338 6.23677 7.56072 6.23647 7.68856C6.2365 7.8167 6.19047 7.92418 6.09841 8.011C6.00634 8.09782 5.89252 8.14107 5.75695 8.14074ZM8.15457 5.87982C8.01868 5.8798 7.90469 5.83636 7.81259 5.74951C7.72049 5.66267 7.67459 5.55532 7.67489 5.42748C7.67487 5.29934 7.72089 5.19186 7.81296 5.10504C7.90503 5.01822 8.01885 4.97497 8.15441 4.9753C8.2903 4.97532 8.40429 5.01876 8.49639 5.10561C8.58849 5.19245 8.63439 5.2998 8.63409 5.42764C8.63411 5.55578 8.58809 5.66326 8.49602 5.75008C8.40395 5.8369 8.29013 5.88015 8.15457 5.87982ZM3.35857 5.87903C3.22269 5.87901 3.10869 5.83557 3.0166 5.74872C2.9245 5.66187 2.8786 5.55453 2.8789 5.42669C2.87887 5.29855 2.9249 5.19107 3.01697 5.10425C3.10903 5.01743 3.22285 4.97418 3.35842 4.97451C3.49431 4.97453 3.6083 5.01796 3.7004 5.10481C3.79249 5.19166 3.83839 5.29901 3.83809 5.42685C3.83812 5.55499 3.79209 5.66247 3.70003 5.74929C3.60796 5.83611 3.49414 5.87936 3.35857 5.87903Z" fill="#223484"/>
</svg>
