<svg width="10" height="10" viewBox="0 0 10 10" fill="none" xmlns="http://www.w3.org/2000/svg">
<path d="M3.3333 5.83416C3.21525 5.83416 3.11622 5.79416 3.03622 5.71416C2.95622 5.63416 2.91636 5.53527 2.91664 5.4175C2.91664 5.29944 2.95664 5.20041 3.03664 5.12041C3.11664 5.04041 3.21553 5.00055 3.3333 5.00083C3.45136 5.00083 3.55039 5.04083 3.63039 5.12083C3.71039 5.20083 3.75025 5.29972 3.74997 5.4175C3.74997 5.53555 3.70997 5.63458 3.62997 5.71458C3.54997 5.79458 3.45108 5.83444 3.3333 5.83416ZM4.99997 5.83416C4.88192 5.83416 4.78289 5.79416 4.70289 5.71416C4.62289 5.63416 4.58303 5.53527 4.58331 5.4175C4.58331 5.29944 4.62331 5.20041 4.70331 5.12041C4.78331 5.04041 4.8822 5.00055 4.99997 5.00083C5.11803 5.00083 5.21706 5.04083 5.29706 5.12083C5.37706 5.20083 5.41692 5.29972 5.41664 5.4175C5.41664 5.53555 5.37664 5.63458 5.29664 5.71458C5.21664 5.79458 5.11775 5.83444 4.99997 5.83416ZM6.66664 5.83416C6.54859 5.83416 6.44956 5.79416 6.36956 5.71416C6.28956 5.63416 6.2497 5.53527 6.24997 5.4175C6.24997 5.29944 6.28997 5.20041 6.36997 5.12041C6.44997 5.04041 6.54886 5.00055 6.66664 5.00083C6.7847 5.00083 6.88372 5.04083 6.96372 5.12083C7.04372 5.20083 7.08359 5.29972 7.08331 5.4175C7.08331 5.53555 7.04331 5.63458 6.96331 5.71458C6.88331 5.79458 6.78442 5.83444 6.66664 5.83416ZM2.0833 9.1675C1.85414 9.1675 1.65789 9.08583 1.49455 8.9225C1.33122 8.75917 1.24969 8.56306 1.24997 8.33417V2.50083C1.24997 2.27166 1.33164 2.07541 1.49497 1.91208C1.6583 1.74874 1.85441 1.66721 2.0833 1.66749H2.49997V1.24041C2.49997 1.12235 2.53997 1.02513 2.61997 0.948741C2.69997 0.872352 2.79886 0.834158 2.91664 0.834158C3.03469 0.834158 3.13372 0.874158 3.21372 0.954158C3.29372 1.03416 3.33358 1.13305 3.3333 1.25082V1.66749H6.66664V1.24041C6.66664 1.12235 6.70664 1.02513 6.78664 0.948741C6.86664 0.872352 6.96553 0.834158 7.08331 0.834158C7.20136 0.834158 7.30039 0.874158 7.38039 0.954158C7.46039 1.03416 7.50025 1.13305 7.49998 1.25082V1.66749H7.91664C8.14581 1.66749 8.34206 1.74916 8.50539 1.91249C8.66873 2.07583 8.75025 2.27194 8.74998 2.50083V8.33417C8.74998 8.56333 8.66831 8.75958 8.50498 8.92292C8.34164 9.08625 8.14553 9.16778 7.91664 9.1675H2.0833ZM2.0833 8.33417H7.91664V4.16749H2.0833V8.33417ZM2.0833 3.33416H7.91664V2.50083H2.0833V3.33416Z" fill="#223484"/>
</svg>
