<svg width="12" height="11" viewBox="0 0 12 11" fill="none" xmlns="http://www.w3.org/2000/svg">
<g clip-path="url(#clip0_169_3637)">
<path d="M9.65143 4.1215C10.0597 4.12148 10.3907 3.81389 10.3907 3.43446C10.3907 3.05503 10.0597 2.74745 9.65142 2.74746C9.24313 2.74747 8.91214 3.05507 8.91214 3.4345C8.91215 3.81393 9.24314 4.12151 9.65143 4.1215Z" fill="#223484"/>
<path d="M5.95586 9.95992L3.36837 9.96L3.36836 9.27298L5.95585 9.2729C7.79038 9.27284 9.2826 7.88605 9.28259 6.18121L9.28258 4.80718L10.0219 4.80716L10.0219 6.18119C10.0219 8.26457 8.19773 9.95985 5.95586 9.95992Z" fill="#223484"/>
<path d="M5.21643 7.2116C4.19733 7.21163 3.36822 6.44116 3.36821 5.49411C3.3682 4.54705 4.1973 3.77654 5.2164 3.77651C6.2355 3.77647 7.06461 4.54694 7.06462 5.49399C7.06463 6.44105 6.23553 7.21156 5.21643 7.2116ZM5.21641 4.46352C4.60502 4.46354 4.10749 4.92592 4.10749 5.49409C4.1075 6.06225 4.60504 6.5246 5.21643 6.52458C5.82781 6.52456 6.32535 6.06218 6.32534 5.49402C6.32534 4.92585 5.82779 4.46351 5.21641 4.46352Z" fill="#223484"/>
<path d="M0.780493 8.24172C1.18879 8.2417 1.51978 7.93409 1.51979 7.55466C1.5198 7.17523 1.18882 6.86766 0.780524 6.86769C0.372229 6.86771 0.0412349 7.17532 0.0412266 7.55475C0.0412182 7.93418 0.372199 8.24175 0.780493 8.24172Z" fill="#223484"/>
<path d="M1.15237 6.18173L0.413084 6.18172L0.412906 4.80768C0.412637 2.7243 2.2366 1.02912 4.47847 1.02917L7.06596 1.02922L7.06604 1.71624L4.47856 1.71618C2.64403 1.71614 1.15197 3.10286 1.15219 4.80769L1.15237 6.18173Z" fill="#223484"/>
</g>
<defs>
<clipPath id="clip0_169_3637">
<rect width="11.485" height="10.9321" rx="2" transform="matrix(1.00551 0.000664634 0.00100136 1.00551 0 0)" fill="white"/>
</clipPath>
</defs>
</svg>
