<svg width="19" height="18" viewBox="0 0 19 18" fill="none" xmlns="http://www.w3.org/2000/svg">
<path d="M8.43967 10.6036L10.0855 9.37478L8.43967 8.14597C8.37388 8.10036 8.32579 8.04236 8.30046 7.97806C8.27513 7.91376 8.2735 7.84554 8.29574 7.78061C8.31797 7.71568 8.36326 7.65642 8.42682 7.60909C8.49038 7.56176 8.56986 7.5281 8.65689 7.51167C8.74377 7.49504 8.83504 7.4962 8.9211 7.51503C9.00717 7.53385 9.08485 7.56964 9.14598 7.61863L11.145 9.11111C11.2386 9.18107 11.2912 9.2759 11.2912 9.37478C11.2912 9.47366 11.2386 9.56849 11.145 9.63845L9.14598 11.1309C9.0849 11.18 9.0072 11.2159 8.92108 11.2349C8.83496 11.2538 8.74359 11.255 8.65662 11.2384C8.56965 11.2218 8.49028 11.188 8.42689 11.1405C8.36349 11.0931 8.31841 11.0337 8.2964 10.9687C8.27414 10.9039 8.27569 10.8357 8.3009 10.7715C8.32611 10.7072 8.37405 10.6492 8.43967 10.6036Z" fill="white"/>
<path d="M13.9352 15.75L3.37794 15.75C2.75986 15.75 2.25824 15.2502 2.25824 14.6344L2.25824 4.11562C2.25823 3.81974 2.3762 3.53598 2.58619 3.32676C2.79618 3.11754 3.08098 3 3.37794 3L13.9352 3C14.2321 3 14.5169 3.11754 14.7269 3.32676C14.9369 3.53598 15.0549 3.81974 15.0549 4.11562L15.0549 14.6344C15.0549 15.2502 14.5532 15.75 13.9352 15.75ZM14.0951 14.6344L14.0951 4.11562C14.0951 4.02765 14.0235 3.95625 13.9352 3.95625L6.73706 3.95625L6.73706 14.7937L13.9352 14.7937C13.9776 14.7937 14.0183 14.777 14.0483 14.7471C14.0783 14.7172 14.0951 14.6766 14.0951 14.6344ZM5.77731 3.95625H3.37794C3.33552 3.95625 3.29483 3.97304 3.26483 4.00293C3.23484 4.03282 3.21798 4.07336 3.21798 4.11562L3.21798 14.6344C3.21798 14.6766 3.23484 14.7172 3.26483 14.7471C3.29483 14.777 3.33552 14.7937 3.37794 14.7937H5.77731L5.77731 3.95625Z" fill="white"/>
</svg>
