<svg width="8" height="11" viewBox="0 0 8 11" fill="none" xmlns="http://www.w3.org/2000/svg">
<path d="M6.75185 4.22101L3.94456 4.21701L3.94996 0.423772C3.95007 0.350741 3.92377 0.279826 3.87537 0.222589C3.82696 0.165352 3.75929 0.125169 3.6834 0.108591C3.60752 0.0920125 3.52788 0.100017 3.45747 0.1313C3.38707 0.162583 3.33005 0.215298 3.29572 0.280852L0.135079 6.31409C0.109477 6.36329 0.0976312 6.41778 0.100654 6.47244C0.103676 6.52711 0.121467 6.58017 0.152358 6.62663C0.183249 6.67309 0.226226 6.71144 0.277257 6.73807C0.328288 6.76471 0.3857 6.77876 0.444106 6.7789L3.2514 6.7829L3.24599 10.5771C3.24605 10.6498 3.2723 10.7204 3.32048 10.7774C3.36867 10.8345 3.43597 10.8746 3.5115 10.8913C3.53735 10.8969 3.56378 10.8997 3.59029 10.8998C3.65479 10.8998 3.71801 10.8829 3.77277 10.851C3.82753 10.819 3.87162 10.7733 3.90004 10.7191L7.06068 4.68582C7.08622 4.63663 7.09802 4.58217 7.09498 4.52754C7.09194 4.47291 7.07416 4.41989 7.04331 4.37345C7.01245 4.32701 6.96952 4.28866 6.91855 4.262C6.86758 4.23534 6.81022 4.22124 6.75185 4.22101ZM3.93749 9.1818L3.94137 6.46057C3.94144 6.37491 3.90521 6.29272 3.84065 6.23207C3.77608 6.17142 3.68847 6.13728 3.59707 6.13715L0.996634 6.13345L3.25827 1.8183L3.25439 4.53934C3.25436 4.58177 3.26324 4.62379 3.28054 4.66301C3.29783 4.70223 3.32319 4.73787 3.35518 4.76791C3.38717 4.79794 3.42516 4.82177 3.46697 4.83805C3.50879 4.85433 3.55361 4.86272 3.59889 4.86276L6.19932 4.86647L3.93749 9.1818Z" fill="#2196F3" stroke="#2196F3" stroke-width="0.2"/>
</svg>
