<svg width="11" height="11" viewBox="0 0 11 11" fill="none" xmlns="http://www.w3.org/2000/svg">
<g clip-path="url(#clip0_169_4093)">
<path d="M3.90195 7.19231L3.4625 8.92428C3.43586 9.03886 3.37816 9.13141 3.28938 9.20192C3.2006 9.27243 3.09406 9.30769 2.96977 9.30769C2.80109 9.30769 2.66349 9.24159 2.55695 9.10937C2.45042 8.97716 2.41934 8.83173 2.46373 8.67308L2.83661 7.19231H1.38507C1.20751 7.19231 1.06547 7.12391 0.95893 6.98711C0.852395 6.85032 0.821323 6.69836 0.865712 6.53125C0.892346 6.40785 0.954491 6.3109 1.05215 6.24038C1.14981 6.16987 1.26078 6.13461 1.38507 6.13461H3.10294L3.63562 4.01923H2.18408C2.00652 4.01923 1.86448 3.95083 1.75794 3.81404C1.65141 3.67724 1.62033 3.52529 1.66472 3.35817C1.69136 3.23477 1.7535 3.13782 1.85116 3.06731C1.94882 2.99679 2.05979 2.96154 2.18408 2.96154H3.90195L4.34141 1.22957C4.36804 1.11498 4.42575 1.02243 4.51453 0.951922C4.60331 0.881409 4.70984 0.846153 4.83413 0.846153C5.00281 0.846153 5.14042 0.912259 5.24695 1.04447C5.35349 1.17668 5.38456 1.32211 5.34017 1.48077L4.9673 2.96154H7.098L7.53745 1.22957C7.56409 1.11498 7.62179 1.02243 7.71057 0.951922C7.79935 0.881409 7.90589 0.846153 8.03018 0.846153C8.19886 0.846153 8.33646 0.912259 8.443 1.04447C8.54953 1.17668 8.58061 1.32211 8.53622 1.48077L8.16334 2.96154H9.61488C9.79244 2.96154 9.93448 3.02976 10.041 3.1662C10.1476 3.30264 10.1786 3.45477 10.1342 3.6226C10.1076 3.74599 10.0455 3.84295 9.9478 3.91346C9.85015 3.98397 9.73917 4.01923 9.61488 4.01923H7.89701L7.36433 6.13461H8.81587C8.99343 6.13461 9.13547 6.20301 9.24201 6.33981C9.34854 6.4766 9.37962 6.62856 9.33523 6.79567C9.30859 6.91907 9.24645 7.01602 9.14879 7.08654C9.05113 7.15705 8.94016 7.19231 8.81587 7.19231H7.098L6.65854 8.92428C6.63191 9.03886 6.5742 9.13141 6.48542 9.20192C6.39664 9.27243 6.29011 9.30769 6.16582 9.30769C5.99714 9.30769 5.85953 9.24159 5.753 9.10937C5.64646 8.97716 5.61539 8.83173 5.65978 8.67308L6.03265 7.19231H3.90195ZM4.16829 6.13461H6.29899L6.83166 4.01923H4.70096L4.16829 6.13461Z" fill="#2196F3"/>
</g>
<defs>
<clipPath id="clip0_169_4093">
<rect width="10.4252" height="10.4252" fill="white" transform="scale(1.05513)"/>
</clipPath>
</defs>
</svg>
