<svg width="8" height="10" viewBox="0 0 8 10" fill="none" xmlns="http://www.w3.org/2000/svg">
<path d="M6.75557 3.83534H3.94528V0.393193C3.94528 0.326922 3.91886 0.262605 3.87032 0.210729C3.82178 0.158852 3.75399 0.122475 3.67799 0.10753C3.602 0.0925841 3.52229 0.0999506 3.45185 0.128429C3.38142 0.156907 3.32442 0.204817 3.29014 0.264347L0.134725 5.74323C0.109166 5.78791 0.0973853 5.83737 0.100489 5.88697C0.103593 5.93657 0.121478 5.98469 0.152468 6.02682C0.183458 6.06894 0.226536 6.10368 0.277659 6.12779C0.328783 6.15189 0.386276 6.16456 0.444744 6.16462H3.25504V9.6076C3.2552 9.67361 3.28157 9.73764 3.32989 9.78933C3.3782 9.84102 3.44564 9.87735 3.52127 9.89244C3.54715 9.89745 3.57362 9.89998 3.60016 9.89998C3.66473 9.89995 3.72799 9.88453 3.78276 9.85547C3.83753 9.82641 3.88161 9.78489 3.90998 9.73561L7.0654 4.25673C7.09089 4.21206 7.10263 4.16262 7.09951 4.11305C7.09639 4.06348 7.07851 4.01539 7.04756 3.97329C7.0166 3.93119 6.97358 3.89644 6.92251 3.87232C6.87144 3.84819 6.81401 3.83547 6.75557 3.83534ZM3.94528 8.34059V5.87124C3.94523 5.7935 3.90885 5.71897 3.84413 5.66401C3.77941 5.60906 3.69166 5.57819 3.60016 5.57819H0.996942L3.25484 1.65954V4.12872C3.25486 4.16722 3.26382 4.20535 3.28119 4.24091C3.29855 4.27648 3.324 4.30879 3.35606 4.336C3.38813 4.36321 3.42619 4.38479 3.46807 4.39951C3.50995 4.41422 3.55484 4.42179 3.60016 4.42176H6.20338L3.94528 8.34059Z" fill="#2196F3" stroke="#2196F3" stroke-width="0.2"/>
</svg>
