<svg width="11" height="11" viewBox="0 0 11 11" fill="none" xmlns="http://www.w3.org/2000/svg">
<g clip-path="url(#clip0_169_4087)">
<path d="M3.90198 7.1923L3.46252 8.92427C3.43589 9.03886 3.37818 9.13141 3.2894 9.20192C3.20062 9.27243 3.09409 9.30769 2.9698 9.30769C2.80112 9.30769 2.66351 9.24158 2.55697 9.10937C2.45044 8.97716 2.41937 8.83173 2.46376 8.67307L2.83663 7.1923H1.38509C1.20754 7.1923 1.06549 7.12391 0.958954 6.98711C0.852419 6.85032 0.821347 6.69836 0.865736 6.53125C0.89237 6.40785 0.954515 6.31089 1.05217 6.24038C1.14983 6.16987 1.2608 6.13461 1.38509 6.13461H3.10297L3.63564 4.01923H2.1841C2.00655 4.01923 1.8645 3.95083 1.75796 3.81404C1.65143 3.67724 1.62036 3.52529 1.66475 3.35817C1.69138 3.23477 1.75353 3.13782 1.85118 3.06731C1.94884 2.99679 2.05981 2.96154 2.1841 2.96154H3.90198L4.34143 1.22957C4.36807 1.11498 4.42577 1.02243 4.51455 0.951922C4.60333 0.881409 4.70986 0.846153 4.83416 0.846153C5.00284 0.846153 5.14044 0.912258 5.24698 1.04447C5.35351 1.17668 5.38458 1.32211 5.34019 1.48077L4.96732 2.96154H7.09802L7.53747 1.22957C7.56411 1.11498 7.62181 1.02243 7.71059 0.951922C7.79937 0.881409 7.90591 0.846153 8.0302 0.846153C8.19888 0.846153 8.33648 0.912258 8.44302 1.04447C8.54955 1.17668 8.58063 1.32211 8.53624 1.48077L8.16337 2.96154H9.6149C9.79246 2.96154 9.9345 3.02976 10.041 3.1662C10.1476 3.30264 10.1786 3.45477 10.1343 3.62259C10.1076 3.74599 10.0455 3.84295 9.94782 3.91346C9.85017 3.98397 9.73919 4.01923 9.6149 4.01923H7.89703L7.36436 6.13461H8.81589C8.99345 6.13461 9.13549 6.20301 9.24203 6.3398C9.34856 6.4766 9.37964 6.62855 9.33525 6.79567C9.30861 6.91907 9.24647 7.01602 9.14881 7.08653C9.05116 7.15705 8.94018 7.1923 8.81589 7.1923H7.09802L6.65856 8.92427C6.63193 9.03886 6.57422 9.13141 6.48544 9.20192C6.39666 9.27243 6.29013 9.30769 6.16584 9.30769C5.99716 9.30769 5.85955 9.24158 5.75302 9.10937C5.64648 8.97716 5.61541 8.83173 5.6598 8.67307L6.03267 7.1923H3.90198ZM4.16831 6.13461H6.29901L6.83168 4.01923H4.70099L4.16831 6.13461Z" fill="#2196F3"/>
</g>
<defs>
<clipPath id="clip0_169_4087">
<rect width="10.4252" height="10.4252" fill="white" transform="scale(1.05513)"/>
</clipPath>
</defs>
</svg>
