<svg width="10" height="10" viewBox="0 0 10 10" fill="none" xmlns="http://www.w3.org/2000/svg">
<g clip-path="url(#clip0_169_4111)">
<path d="M3.33333 5.83333C3.21528 5.83333 3.11625 5.79333 3.03625 5.71333C2.95625 5.63333 2.91639 5.53444 2.91666 5.41666C2.91666 5.29861 2.95666 5.19958 3.03666 5.11958C3.11666 5.03958 3.21555 4.99972 3.33333 5C3.45139 5 3.55041 5.04 3.63041 5.12C3.71041 5.2 3.75028 5.29889 3.75 5.41666C3.75 5.53472 3.71 5.63375 3.63 5.71375C3.55 5.79375 3.45111 5.83361 3.33333 5.83333ZM5 5.83333C4.88194 5.83333 4.78291 5.79333 4.70291 5.71333C4.62291 5.63333 4.58305 5.53444 4.58333 5.41666C4.58333 5.29861 4.62333 5.19958 4.70333 5.11958C4.78333 5.03958 4.88222 4.99972 5 5C5.11805 5 5.21708 5.04 5.29708 5.12C5.37708 5.2 5.41694 5.29889 5.41666 5.41666C5.41666 5.53472 5.37666 5.63375 5.29666 5.71375C5.21666 5.79375 5.11777 5.83361 5 5.83333ZM6.66666 5.83333C6.54861 5.83333 6.44958 5.79333 6.36958 5.71333C6.28958 5.63333 6.24972 5.53444 6.25 5.41666C6.25 5.29861 6.29 5.19958 6.37 5.11958C6.45 5.03958 6.54888 4.99972 6.66666 5C6.78472 5 6.88375 5.04 6.96375 5.12C7.04375 5.2 7.08361 5.29889 7.08333 5.41666C7.08333 5.53472 7.04333 5.63375 6.96333 5.71375C6.88333 5.79375 6.78444 5.83361 6.66666 5.83333ZM2.08333 9.16666C1.85417 9.16666 1.65792 9.08499 1.49458 8.92166C1.33125 8.75833 1.24972 8.56222 1.25 8.33333V2.5C1.25 2.27083 1.33167 2.07458 1.495 1.91125C1.65833 1.74791 1.85444 1.66639 2.08333 1.66666H2.5V1.23958C2.5 1.12153 2.54 1.0243 2.62 0.947915C2.7 0.871526 2.79889 0.833332 2.91666 0.833332C3.03472 0.833332 3.13375 0.873332 3.21375 0.953332C3.29375 1.03333 3.33361 1.13222 3.33333 1.25V1.66666H6.66666V1.23958C6.66666 1.12153 6.70666 1.0243 6.78666 0.947915C6.86666 0.871526 6.96555 0.833332 7.08333 0.833332C7.20138 0.833332 7.30041 0.873332 7.38041 0.953332C7.46041 1.03333 7.50027 1.13222 7.5 1.25V1.66666H7.91666C8.14583 1.66666 8.34208 1.74833 8.50541 1.91166C8.66875 2.075 8.75027 2.27111 8.74999 2.5V8.33333C8.74999 8.56249 8.66833 8.75875 8.505 8.92208C8.34166 9.08541 8.14555 9.16694 7.91666 9.16666H2.08333ZM2.08333 8.33333H7.91666V4.16666H2.08333V8.33333ZM2.08333 3.33333H7.91666V2.5H2.08333V3.33333Z" fill="#2196F3"/>
</g>
<defs>
<clipPath id="clip0_169_4111">
<rect width="9.6233" height="9.6233" fill="white" transform="scale(1.03914)"/>
</clipPath>
</defs>
</svg>
